<?xml version="1.0" encoding="iso-8859-1"?>
<!-- Generator: Adobe Illustrator 19.1.0, SVG Export Plug-In . SVG Version: 6.00 Build 0)  -->
<svg version="1.1" id="Capa_1" xmlns="http://www.w3.org/2000/svg" xmlns:xlink="http://www.w3.org/1999/xlink" x="0px" y="0px"
	 viewBox="0 0 61.5 61.5" style="enable-background:new 0 0 61.5 61.5;" xml:space="preserve">
<g>
	<g id="group-29svg">
		<path id="path-1_20_" d="M27.853,58.623c-1.765,0-3.53-0.167-5.25-0.494c-0.813-0.156-1.347-0.942-1.192-1.757
			c0.156-0.815,0.948-1.348,1.755-1.193c1.534,0.293,3.111,0.442,4.687,0.442c0.828,0,1.5,0.672,1.5,1.501
			C29.353,57.951,28.681,58.623,27.853,58.623z M18.093,56.756c-0.185,0-0.373-0.035-0.555-0.107
			c-1.632-0.651-3.21-1.463-4.694-2.414c-0.697-0.447-0.9-1.376-0.453-2.074c0.447-0.699,1.375-0.902,2.072-0.454
			c1.323,0.848,2.731,1.572,4.186,2.153c0.77,0.307,1.145,1.18,0.838,1.95C19.253,56.398,18.689,56.756,18.093,56.756z
			 M9.724,51.391c-0.371,0-0.742-0.136-1.032-0.411c-1.273-1.208-2.441-2.546-3.47-3.976c-0.483-0.672-0.331-1.611,0.342-2.095
			c0.672-0.484,1.61-0.332,2.094,0.342c0.918,1.277,1.961,2.471,3.098,3.55c0.601,0.57,0.626,1.52,0.057,2.122
			C10.518,51.235,10.122,51.391,9.724,51.391z M3.925,43.316c-0.566,0-1.108-0.323-1.362-0.871c-0.737-1.596-1.326-3.272-1.75-4.981
			c-0.199-0.805,0.291-1.619,1.095-1.819c0.811-0.2,1.618,0.292,1.817,1.096c0.378,1.525,0.903,3.02,1.561,4.443
			c0.347,0.752,0.02,1.645-0.732,1.993C4.35,43.271,4.136,43.316,3.925,43.316z M1.536,33.663c-0.793,0-1.455-0.621-1.497-1.422
			C0.013,31.747,0,31.25,0,30.75c0-0.829,0.672-1.501,1.5-1.501S3,29.921,3,30.75c0,0.448,0.011,0.893,0.035,1.334
			c0.043,0.828-0.593,1.534-1.42,1.577C1.588,33.663,1.562,33.663,1.536,33.663z"/>
		<path id="path-2_19_" d="M1.5,32.251c-0.828,0-1.5-0.672-1.5-1.501C0,15.381,12.495,2.877,27.853,2.877
			c13.896,0,25.763,10.378,27.605,24.14c0.11,0.822-0.466,1.576-1.288,1.687c-0.816,0.109-1.576-0.467-1.685-1.289
			C50.841,15.138,40.253,5.879,27.853,5.879C14.149,5.879,3,17.036,3,30.75C3,31.579,2.328,32.251,1.5,32.251z"/>
		<path id="path-3_18_" d="M54.619,21.383l4.669-1.489c1.106-0.352,2.287,0.531,2.208,1.69c-0.019,0.276-0.082,0.588-0.217,0.85
			l-4.252,8.231c-0.428,0.827-1.445,1.147-2.272,0.719l-8.23-4.264c-0.262-0.135-0.488-0.336-0.664-0.55
			c-0.733-0.9-0.281-2.305,0.824-2.658l4.921-1.568L54.619,21.383z"/>
	</g>
</g>
<g>
</g>
<g>
</g>
<g>
</g>
<g>
</g>
<g>
</g>
<g>
</g>
<g>
</g>
<g>
</g>
<g>
</g>
<g>
</g>
<g>
</g>
<g>
</g>
<g>
</g>
<g>
</g>
<g>
</g>
</svg>
